<svg width="40" height="50" viewBox="0 0 40 50" fill="none" xmlns="http://www.w3.org/2000/svg">
<path d="M39.1638 32.8289L21.9262 49.2105C21.3746 49.7368 20.6851 50 19.9956 50C19.3061 50 18.6166 49.7368 18.065 49.2105L0.827404 32.8289C-0.275801 31.7763 -0.275801 30.1316 0.827404 29.0789C1.93061 28.0263 3.65436 28.0263 4.75757 29.0789L17.2376 41.0526V2.63158C17.2376 1.18421 18.4787 0 19.9956 0C21.5125 0 22.7536 1.18421 22.7536 2.63158V41.0526L35.3025 29.1447C36.4058 28.0921 38.1295 28.0921 39.2327 29.1447C40.267 30.1316 40.267 31.7763 39.1638 32.8289Z" fill="black"/>
</svg>
