<svg width="50" height="50" viewBox="0 0 50 50" fill="none" xmlns="http://www.w3.org/2000/svg">
<path d="M35.7039 0C44.6299 0 49.9758 4.87859 50 13.0243V36.9757C50 45.1214 44.6783 50 35.7281 50H27.7939C26.7764 49.8976 26.0062 49.113 26.0062 48.1788C26.0062 47.2446 26.7764 46.46 27.7939 46.3576H35.7039C42.5254 46.3576 45.9603 43.2009 45.9603 36.9757V13.0243C45.9603 6.79912 42.5254 3.64238 35.7039 3.64238H14.2719C7.45041 3.64238 3.99129 6.79912 3.99129 13.0243V36.9757C3.99129 43.2009 7.45041 46.3576 14.2719 46.3576C15.2894 46.46 16.0596 47.2446 16.0596 48.1788C16.0596 49.113 15.2894 49.8976 14.2719 50C5.34591 50 0 45.1214 0 36.9757V13.0243C0 4.85651 5.34591 0 14.2719 0H35.7039ZM34.9782 33.7748C36.0737 33.7748 36.9618 34.5853 36.9618 35.585C36.9618 36.5847 36.0737 37.3951 34.9782 37.3951H14.9492C13.8537 37.3951 12.9657 36.5847 12.9657 35.585C12.9657 34.5853 13.8537 33.7748 14.9492 33.7748H34.9782ZM34.9782 23.1788C35.7437 23.1018 36.4899 23.4311 36.8991 24.0264C37.3083 24.6218 37.3083 25.3782 36.8991 25.9736C36.4899 26.5689 35.7437 26.8982 34.9782 26.8212H14.9492C13.9317 26.7188 13.1615 25.9342 13.1615 25C13.1615 24.0658 13.9317 23.2812 14.9492 23.1788H34.9782ZM22.5931 12.6049C23.6106 12.7072 24.3808 13.4919 24.3808 14.426C24.3808 15.3602 23.6106 16.1449 22.5931 16.2472H14.9734C13.9559 16.1449 13.1857 15.3602 13.1857 14.426C13.1857 13.4919 13.9559 12.7072 14.9734 12.6049H22.5931Z" fill="white"/>
</svg>
