<svg width="30" height="50" viewBox="0 0 30 50" fill="none" xmlns="http://www.w3.org/2000/svg">
<path d="M15 0C11.0231 0.00472652 7.21036 1.69948 4.39827 4.71243C1.58618 7.72539 0.00441142 11.8105 0 16.0714V33.9286C0 38.191 1.58035 42.2788 4.3934 45.2928C7.20644 48.3068 11.0218 50 15 50C18.9782 50 22.7936 48.3068 25.6066 45.2928C28.4196 42.2788 30 38.191 30 33.9286V16.0714C29.9956 11.8105 28.4138 7.72539 25.6017 4.71243C22.7896 1.69948 18.9769 0.00472652 15 0ZM26.6667 33.9286C26.6667 37.2438 25.4375 40.4232 23.2496 42.7674C21.0617 45.1116 18.0942 46.4286 15 46.4286C11.9058 46.4286 8.93835 45.1116 6.75042 42.7674C4.5625 40.4232 3.33333 37.2438 3.33333 33.9286V16.0714C3.33333 12.7562 4.5625 9.5768 6.75042 7.23259C8.93835 4.88839 11.9058 3.57143 15 3.57143C18.0942 3.57143 21.0617 4.88839 23.2496 7.23259C25.4375 9.5768 26.6667 12.7562 26.6667 16.0714V33.9286Z" fill="black"/>
<path d="M15 10.7143C14.558 10.7143 14.134 10.9024 13.8215 11.2373C13.5089 11.5722 13.3333 12.0264 13.3333 12.5V19.6429C13.3333 20.1165 13.5089 20.5707 13.8215 20.9056C14.134 21.2404 14.558 21.4286 15 21.4286C15.442 21.4286 15.8659 21.2404 16.1785 20.9056C16.4911 20.5707 16.6666 20.1165 16.6666 19.6429V12.5C16.6666 12.0264 16.4911 11.5722 16.1785 11.2373C15.8659 10.9024 15.442 10.7143 15 10.7143Z" fill="black"/>
</svg>
