<svg width="55" height="52" viewBox="0 0 55 52" fill="none" xmlns="http://www.w3.org/2000/svg">
<path d="M34.527 50.9885C33.8397 51.576 32.9143 51.8279 31.9542 51.6888C30.9941 51.5496 30.078 51.0308 29.4075 50.2464L20.5192 39.8494C19.9148 39.1472 19.5508 38.2782 19.4933 37.4001C19.4358 36.522 19.6886 35.693 20.2057 35.0635L32.8603 19.5225L15.5412 29.6072C14.8386 30.0198 13.9803 30.1402 13.1217 29.9467C12.2632 29.7531 11.4613 29.2585 10.8615 28.5523L1.97401 18.1562C1.55672 17.6682 1.25176 17.0972 1.08632 16.4943C0.920878 15.8914 0.900107 15.2752 1.02586 14.7007C1.15161 14.1262 1.41997 13.6114 1.80701 13.202C2.19405 12.7926 2.68773 12.5015 3.24402 12.3545L49.3162 0.175472C50.0581 -0.0202184 50.8692 0.0210437 51.6481 0.2941C52.4269 0.567156 53.1391 1.0599 53.6955 1.71075C54.2519 2.3616 54.6279 3.1417 54.7765 3.95356C54.9251 4.76542 54.8397 5.57304 54.531 6.2755L35.3353 49.8931C35.1479 50.3198 34.8731 50.6922 34.527 50.9885ZM3.7209 14.9532C3.55254 15.0987 3.43658 15.2975 3.38741 15.5249C3.34331 15.7164 3.34898 15.9224 3.40387 16.1242C3.45877 16.3259 3.56114 16.5169 3.70155 16.6794L12.589 27.0754C12.7894 27.3101 13.0565 27.4745 13.3425 27.539C13.6284 27.6036 13.9143 27.5641 14.1489 27.4277L36.1907 14.5937C36.4804 14.4241 36.8339 14.3745 37.1875 14.4538C37.5412 14.5331 37.8719 14.736 38.1199 15.0261C38.3679 15.3162 38.5169 15.6744 38.5402 16.0361C38.5636 16.3978 38.4596 16.7393 38.247 16.999L22.1422 36.7778C21.9697 36.9874 21.8853 37.2637 21.9045 37.5564C21.9237 37.849 22.0451 38.1386 22.2467 38.3725L31.1342 48.7686C31.2731 48.9318 31.4452 49.0624 31.6353 49.1486C31.8254 49.2349 32.0275 49.274 32.2235 49.2627C32.4195 49.2513 32.6033 49.1897 32.7585 49.0835C32.9136 48.9772 33.0353 48.8296 33.1126 48.6538L52.3059 5.03319C52.43 4.74933 52.4641 4.42321 52.4038 4.09546C52.3436 3.76772 52.1917 3.45284 51.967 3.19008C51.7424 2.92732 51.455 2.7283 51.1406 2.61781C50.8262 2.50732 50.4988 2.49025 50.199 2.56873L4.12264 14.7428C3.97304 14.7836 3.83657 14.855 3.7209 14.9532Z" fill="white"/>
</svg>
